<svg width="600" height="400" viewBox="0 0 600 400" fill="none" xmlns="http://www.w3.org/2000/svg">
  <!-- Map Background -->
  <rect width="600" height="400" fill="#FAF6F2"/>

  <!-- Water areas (simplified Copenhagen waterways) -->
  <path d="M0 100 Q150 80 300 100 T600 120 L600 400 L0 400 Z" fill="#A7C6E0" opacity="0.6"/>
  <path d="M100 0 Q200 50 250 0 L250 80 Q200 100 100 80 Z" fill="#A7C6E0" opacity="0.6"/>
  <ellipse cx="450" cy="200" rx="80" ry="40" fill="#A7C6E0" opacity="0.6"/>

  <!-- Land areas -->
  <rect x="0" y="0" width="600" height="100" fill="#E8F5E8" opacity="0.8"/>
  <rect x="0" y="300" width="600" height="100" fill="#E8F5E8" opacity="0.8"/>
  <rect x="0" y="100" width="100" height="200" fill="#E8F5E8" opacity="0.8"/>
  <rect x="500" y="100" width="100" height="200" fill="#E8F5E8" opacity="0.8"/>

  <!-- Simple street grid -->
  <g stroke="#D1D5DB" stroke-width="2" opacity="0.6">
    <!-- Horizontal streets -->
    <line x1="50" y1="150" x2="550" y2="150"/>
    <line x1="50" y1="200" x2="550" y2="200"/>
    <line x1="50" y1="250" x2="550" y2="250"/>

    <!-- Vertical streets -->
    <line x1="150" y1="50" x2="150" y2="350"/>
    <line x1="250" y1="50" x2="250" y2="350"/>
    <line x1="350" y1="50" x2="350" y2="350"/>
    <line x1="450" y1="50" x2="450" y2="350"/>
  </g>

  <!-- Partner Location Markers -->
  <!-- Fjora CPH -->
  <g transform="translate(180, 180)">
    <circle r="20" fill="#C85A35" stroke="#A84329" stroke-width="2"/>
    <circle r="8" fill="white"/>
    <path d="M-4 0L-1 3L4 -2" stroke="#C85A35" stroke-width="2" stroke-linecap="round" stroke-linejoin="round"/>
  </g>

  <!-- Hart Bakery -->
  <g transform="translate(220, 220)">
    <circle r="20" fill="#C85A35" stroke="#A84329" stroke-width="2"/>
    <circle r="8" fill="white"/>
    <path d="M-4 0L-1 3L4 -2" stroke="#C85A35" stroke-width="2" stroke-linecap="round" stroke-linejoin="round"/>
  </g>

  <!-- Mirabelle -->
  <g transform="translate(280, 160)">
    <circle r="20" fill="#C85A35" stroke="#A84329" stroke-width="2"/>
    <circle r="8" fill="white"/>
    <path d="M-4 0L-1 3L4 -2" stroke="#C85A35" stroke-width="2" stroke-linecap="round" stroke-linejoin="round"/>
  </g>

  <!-- Amass -->
  <g transform="translate(380, 240)">
    <circle r="20" fill="#C85A35" stroke="#A84329" stroke-width="2"/>
    <circle r="8" fill="white"/>
    <path d="M-4 0L-1 3L4 -2" stroke="#C85A35" stroke-width="2" stroke-linecap="round" stroke-linejoin="round"/>
  </g>

  <!-- Location Labels -->
  <text x="180" y="210" text-anchor="middle" font-family="Inter" font-size="12" font-weight="600" fill="#2C5F5D">Fjora</text>
  <text x="220" y="250" text-anchor="middle" font-family="Inter" font-size="12" font-weight="600" fill="#2C5F5D">Hart</text>
  <text x="280" y="190" text-anchor="middle" font-family="Inter" font-size="12" font-weight="600" fill="#2C5F5D">Mirabelle</text>
  <text x="380" y="270" text-anchor="middle" font-family="Inter" font-size="12" font-weight="600" fill="#2C5F5D">Amass</text>

  <!-- Copenhagen Label -->
  <text x="300" y="50" text-anchor="middle" font-family="Inter" font-size="18" font-weight="700" fill="#2C5F5D">Copenhagen Partner Network</text>
</svg>