<svg width="800" height="500" viewBox="0 0 800 500" fill="none" xmlns="http://www.w3.org/2000/svg">
  <!-- Base Map Background -->
  <rect width="800" height="500" fill="#F5F5F5"/>

  <!-- Water Bodies (More realistic) -->
  <path d="M0 200 Q100 180 200 190 Q300 200 400 185 Q500 170 600 180 Q700 190 800 185 L800 500 L0 500 Z" fill="#A8D0E6" opacity="0.8"/>
  <path d="M150 0 Q250 30 350 20 Q450 10 550 25 Q650 40 750 30 L750 150 Q650 140 550 145 Q450 150 350 140 Q250 130 150 135 Z" fill="#A8D0E6" opacity="0.8"/>

  <!-- Islands and smaller water bodies -->
  <ellipse cx="300" cy="120" rx="40" ry="25" fill="#A8D0E6" opacity="0.6"/>
  <ellipse cx="520" cy="300" rx="60" ry="35" fill="#A8D0E6" opacity="0.6"/>
  <ellipse cx="650" cy="250" rx="35" ry="20" fill="#A8D0E6" opacity="0.6"/>

  <!-- Urban Areas -->
  <rect x="100" y="150" width="600" height="200" fill="#E8E8E8" opacity="0.4" rx="10"/>

  <!-- Major Roads/Streets (More realistic pattern) -->
  <g stroke="#FFFFFF" stroke-width="3" opacity="0.9">
    <!-- Main horizontal streets -->
    <line x1="50" y1="200" x2="750" y2="200"/>
    <line x1="50" y1="250" x2="750" y2="250"/>
    <line x1="50" y1="300" x2="750" y2="300"/>

    <!-- Main vertical streets -->
    <line x1="200" y1="100" x2="200" y2="400"/>
    <line x1="350" y1="100" x2="350" y2="400"/>
    <line x1="500" y1="100" x2="500" y2="400"/>
    <line x1="650" y1="100" x2="650" y2="400"/>
  </g>

  <!-- Secondary roads -->
  <g stroke="#DDDDDD" stroke-width="2" opacity="0.7">
    <line x1="50" y1="175" x2="750" y2="175"/>
    <line x1="50" y1="225" x2="750" y2="225"/>
    <line x1="50" y1="275" x2="750" y2="275"/>
    <line x1="50" y1="325" x2="750" y2="325"/>

    <line x1="125" y1="100" x2="125" y2="400"/>
    <line x1="275" y1="100" x2="275" y2="400"/>
    <line x1="425" y1="100" x2="425" y2="400"/>
    <line x1="575" y1="100" x2="575" y2="400"/>
    <line x1="725" y1="100" x2="725" y2="400"/>
  </g>

  <!-- Parks and green areas -->
  <ellipse cx="180" cy="220" rx="30" ry="20" fill="#C8E6C9" opacity="0.8"/>
  <rect x="450" y="180" width="80" height="60" fill="#C8E6C9" opacity="0.8" rx="15"/>
  <ellipse cx="620" cy="320" rx="40" ry="25" fill="#C8E6C9" opacity="0.8"/>

  <!-- Buildings/Landmarks (simplified) -->
  <rect x="320" y="230" width="60" height="40" fill="#BDBDBD" opacity="0.6" rx="5"/>
  <rect x="180" y="280" width="40" height="30" fill="#BDBDBD" opacity="0.6" rx="3"/>
  <rect x="520" y="200" width="50" height="35" fill="#BDBDBD" opacity="0.6" rx="4"/>

  <!-- Partner Location Markers with Better Design -->
  <!-- Fjora CPH -->
  <g transform="translate(220, 240)">
    <circle r="16" fill="#FFFFFF" stroke="#C85A35" stroke-width="3"/>
    <circle r="8" fill="#C85A35"/>
    <text x="0" y="35" text-anchor="middle" font-family="Inter" font-size="11" font-weight="600" fill="#2C5F5D">Fjora CPH</text>
  </g>

  <!-- Hart Bakery -->
  <g transform="translate(280, 280)">
    <circle r="16" fill="#FFFFFF" stroke="#C85A35" stroke-width="3"/>
    <circle r="8" fill="#C85A35"/>
    <text x="0" y="35" text-anchor="middle" font-family="Inter" font-size="11" font-weight="600" fill="#2C5F5D">Hart Bakery</text>
  </g>

  <!-- Mirabelle -->
  <g transform="translate(380, 220)">
    <circle r="16" fill="#FFFFFF" stroke="#C85A35" stroke-width="3"/>
    <circle r="8" fill="#C85A35"/>
    <text x="0" y="35" text-anchor="middle" font-family="Inter" font-size="11" font-weight="600" fill="#2C5F5D">Mirabelle</text>
  </g>

  <!-- Amass -->
  <g transform="translate(520, 320)">
    <circle r="16" fill="#FFFFFF" stroke="#C85A35" stroke-width="3"/>
    <circle r="8" fill="#C85A35"/>
    <text x="0" y="35" text-anchor="middle" font-family="Inter" font-size="11" font-weight="600" fill="#2C5F5D">Amass</text>
  </g>

  <!-- Map Title -->
  <text x="400" y="40" text-anchor="middle" font-family="Inter" font-size="20" font-weight="700" fill="#2C5F5D">Copenhagen Partner Network</text>

  <!-- Subtle grid pattern for more realistic feel -->
  <defs>
    <pattern id="grid" width="20" height="20" patternUnits="userSpaceOnUse">
      <path d="M 20 0 L 0 0 0 20" fill="none" stroke="#F0F0F0" stroke-width="0.5" opacity="0.3"/>
    </pattern>
  </defs>
  <rect width="800" height="500" fill="url(#grid)"/>

  <!-- Compass -->
  <g transform="translate(50, 60)">
    <circle r="25" fill="white" stroke="#DDD" stroke-width="2"/>
    <path d="M0,-15 L5,0 L0,15 L-5,0 Z" fill="#C85A35"/>
    <text x="0" y="-30" text-anchor="middle" font-family="Inter" font-size="10" font-weight="600" fill="#666">N</text>
  </g>
</svg>